<?xml version="1.0" encoding="utf-8"?>
<!-- Generator: Adobe Illustrator 22.0.1, SVG Export Plug-In . SVG Version: 6.00 Build 0)  -->
<svg version="1.1" id="Livello_1" xmlns="http://www.w3.org/2000/svg" xmlns:xlink="http://www.w3.org/1999/xlink" x="0px" y="0px"
	 viewBox="0 0 16 16" style="enable-background:new 0 0 16 16;" xml:space="preserve">
<style type="text/css">
	.st0{fill:#666666;}
</style>
<path class="st0" d="M13,0H3C1.9,0,1,0.9,1,2v12c0,1.1,0.9,2,2,2h10c1.1,0,2-0.9,2-2V2C15,0.9,14.1,0,13,0z M13,13c0,0.6-0.4,1-1,1
	H4c-0.6,0-1-0.4-1-1V3c0-0.6,0.4-1,1-1h8c0.6,0,1,0.4,1,1V13z"/>
<polygon class="st0" points="10,5.4 8.7,5.4 8.7,10.6 10,10.6 10,12 6,12 6,10.6 7.3,10.6 7.3,5.4 6,5.4 6,4 10,4 "/>
</svg>
